<?xml version="1.0" encoding="UTF-8"?>
<!DOCTYPE svg PUBLIC "-//W3C//DTD SVG 1.1//EN" "http://www.w3.org/Graphics/SVG/1.1/DTD/svg11.dtd">
<svg xmlns="http://www.w3.org/2000/svg" version="1.1" width="1920px" height="1920px" style="shape-rendering:geometricPrecision; text-rendering:geometricPrecision; image-rendering:optimizeQuality; fill-rule:evenodd; clip-rule:evenodd" xmlns:xlink="http://www.w3.org/1999/xlink">
<g><path style="opacity:0.977" fill="#000000" d="M 853.5,31.5 C 927.834,31.3333 1002.17,31.5 1076.5,32C 1075.65,33.5581 1076.32,34.5581 1078.5,35C 1090.83,35.8845 1103.16,36.7178 1115.5,37.5C 1116.38,38.9705 1117.71,39.8038 1119.5,40C 1127.2,40.2681 1134.87,40.7681 1142.5,41.5C 1142.36,43.1238 1143.03,44.2904 1144.5,45C 1150.5,45.3333 1156.5,45.6667 1162.5,46C 1163.34,47.0113 1163.67,48.1779 1163.5,49.5C 1170.49,50.0559 1177.49,50.7225 1184.5,51.5C 1186.25,53.6999 1188.59,54.8666 1191.5,55C 1196.15,55.4992 1200.82,55.6658 1205.5,55.5C 1205.33,56.8221 1205.66,57.9887 1206.5,59C 1211.07,60.3092 1215.73,60.8092 1220.5,60.5C 1220.33,61.8221 1220.66,62.9887 1221.5,64C 1226.17,64.3333 1230.83,64.6667 1235.5,65C 1240.77,69.023 1246.77,70.523 1253.5,69.5C 1253.14,71.9115 1254.14,73.4115 1256.5,74C 1260.15,74.4986 1263.82,74.6653 1267.5,74.5C 1267.29,76.1439 1267.62,77.6439 1268.5,79C 1272.83,79.3333 1277.17,79.6667 1281.5,80C 1280.65,81.5581 1281.32,82.5581 1283.5,83C 1287.44,84.0153 1291.44,84.5153 1295.5,84.5C 1295.53,87.6557 1297.2,89.3223 1300.5,89.5C 1304.4,87.5569 1306.73,88.7236 1307.5,93C 1310.88,93.1764 1314.22,93.6764 1317.5,94.5C 1317.87,95.9019 1318.7,96.9019 1320,97.5C 1323.51,98.0576 1327.01,98.7243 1330.5,99.5C 1333.04,102.608 1336.37,104.275 1340.5,104.5C 1340.83,106.167 1341.83,107.167 1343.5,107.5C 1346.11,108.269 1348.78,108.603 1351.5,108.5C 1351.33,109.822 1351.66,110.989 1352.5,112C 1354.56,112.311 1356.56,112.811 1358.5,113.5C 1359.17,113.167 1359.83,112.833 1360.5,112.5C 1361.94,113.865 1363.27,115.365 1364.5,117C 1367.17,117.333 1369.83,117.667 1372.5,118C 1373.17,119.333 1373.83,120.667 1374.5,122C 1377.15,122.497 1379.81,122.664 1382.5,122.5C 1382.24,123.978 1382.57,125.311 1383.5,126.5C 1386.08,127.393 1388.75,127.726 1391.5,127.5C 1391.33,128.822 1391.66,129.989 1392.5,131C 1395.35,132.289 1398.35,132.789 1401.5,132.5C 1401.33,133.822 1401.66,134.989 1402.5,136C 1405.01,137.252 1407.68,137.752 1410.5,137.5C 1410.33,138.822 1410.66,139.989 1411.5,141C 1413.81,141.662 1416.15,142.162 1418.5,142.5C 1418.28,143.675 1418.61,144.675 1419.5,145.5C 1423.69,145.597 1426.69,147.43 1428.5,151C 1430.81,151.497 1433.14,151.663 1435.5,151.5C 1435.3,153.39 1435.96,154.89 1437.5,156C 1439.58,156.192 1441.58,156.692 1443.5,157.5C 1445.61,160.721 1448.61,162.055 1452.5,161.5C 1452.33,162.822 1452.66,163.989 1453.5,165C 1456.85,165.004 1459.18,166.504 1460.5,169.5C 1462.4,170.466 1464.4,170.799 1466.5,170.5C 1466.33,171.822 1466.66,172.989 1467.5,174C 1469.39,174.973 1471.39,175.64 1473.5,176C 1475.19,179.964 1478.19,181.464 1482.5,180.5C 1482.33,181.822 1482.66,182.989 1483.5,184C 1487.13,184.278 1489.13,186.112 1489.5,189.5C 1491.33,190.052 1493,190.052 1494.5,189.5C 1497.78,192.751 1501.11,195.918 1504.5,199C 1507.8,198.816 1509.8,200.316 1510.5,203.5C 1512.54,204.041 1514.54,204.708 1516.5,205.5C 1518.69,208 1521.03,210.333 1523.5,212.5C 1527.26,214.517 1530.92,216.684 1534.5,219C 1539.17,223.333 1543.83,227.667 1548.5,232C 1549.83,232.333 1551.17,232.667 1552.5,233C 1559.17,239.334 1565.84,245.667 1572.5,252C 1573.79,252.49 1575.13,252.657 1576.5,252.5C 1576.55,255.635 1578.21,257.302 1581.5,257.5C 1582.04,258.748 1582.71,259.915 1583.5,261C 1586.49,263.628 1589.82,265.961 1593.5,268C 1603.96,278.957 1614.62,289.624 1625.5,300C 1626.45,300.483 1627.45,300.649 1628.5,300.5C 1628.63,303.468 1630.13,305.468 1633,306.5C 1633.17,309.333 1634.67,310.833 1637.5,311C 1638.19,312.067 1638.69,313.234 1639,314.5C 1645.21,319.915 1651.21,325.582 1657,331.5C 1660.68,335.541 1664.34,339.541 1668,343.5C 1668.11,346.447 1669.61,347.78 1672.5,347.5C 1671.92,350.55 1673.09,352.55 1676,353.5C 1676.33,354.5 1676.67,355.5 1677,356.5C 1681.48,361.397 1686.15,366.063 1691,370.5C 1693.07,373.879 1695.07,377.213 1697,380.5C 1701.9,385.282 1706.56,390.282 1711,395.5C 1710.73,398.901 1712.23,400.567 1715.5,400.5C 1715.34,401.873 1715.51,403.207 1716,404.5C 1719.17,407.637 1722.17,410.971 1725,414.5C 1725.33,416.167 1725.67,417.833 1726,419.5C 1727.01,420.337 1728.18,420.67 1729.5,420.5C 1729.49,423.825 1730.99,426.159 1734,427.5C 1734.73,430.711 1736.57,432.711 1739.5,433.5C 1739.34,435.199 1739.51,436.866 1740,438.5C 1743.17,441.684 1746.17,445.017 1749,448.5C 1748.78,451.825 1750.11,454.158 1753,455.5C 1754.56,460.2 1756.72,464.533 1759.5,468.5C 1762.76,470.136 1764.59,472.803 1765,476.5C 1766.01,477.337 1767.18,477.67 1768.5,477.5C 1767.34,482.175 1769.01,484.841 1773.5,485.5C 1772.44,490.116 1773.94,493.449 1778,495.5C 1777.81,499.269 1779.31,502.102 1782.5,504C 1784.8,508.749 1786.97,513.583 1789,518.5C 1790.01,519.337 1791.18,519.67 1792.5,519.5C 1792.34,521.857 1792.5,524.19 1793,526.5C 1794.11,528.037 1795.61,528.703 1797.5,528.5C 1797.11,531.93 1797.77,535.096 1799.5,538C 1800.45,538.483 1801.45,538.649 1802.5,538.5C 1802.34,541.187 1802.5,543.854 1803,546.5C 1804.33,547.167 1805.67,547.833 1807,548.5C 1806.01,550.92 1806.35,553.253 1808,555.5C 1809.01,556.337 1810.18,556.67 1811.5,556.5C 1811.35,559.607 1811.85,562.607 1813,565.5C 1814.01,566.337 1815.18,566.67 1816.5,566.5C 1816.04,570.584 1816.71,574.417 1818.5,578C 1819.45,578.483 1820.45,578.649 1821.5,578.5C 1821.34,581.187 1821.5,583.854 1822,586.5C 1822.99,587.939 1824.32,588.939 1826,589.5C 1825.51,594.242 1827.18,597.908 1831,600.5C 1831.33,603.833 1831.67,607.167 1832,610.5C 1833.01,611.337 1834.18,611.67 1835.5,611.5C 1835.34,614.187 1835.5,616.854 1836,619.5C 1836.4,621.521 1837.57,622.855 1839.5,623.5C 1840.32,626.107 1840.82,628.774 1841,631.5C 1841.59,633.863 1843.09,634.863 1845.5,634.5C 1845.33,638.182 1845.5,641.848 1846,645.5C 1846.67,647.5 1848,648.833 1850,649.5C 1850.33,653.5 1850.67,657.5 1851,661.5C 1852.33,662.167 1853.67,662.833 1855,663.5C 1855.33,666.833 1855.67,670.167 1856,673.5C 1856.71,674.973 1857.88,675.64 1859.5,675.5C 1859.38,680.232 1859.88,684.898 1861,689.5C 1863.98,694.607 1865.32,700.274 1865,706.5C 1865.59,708.863 1867.09,709.863 1869.5,709.5C 1869.33,713.514 1869.5,717.514 1870,721.5C 1870.59,723.863 1872.09,724.863 1874.5,724.5C 1874.33,729.511 1874.5,734.511 1875,739.5C 1875.57,742.563 1876.91,745.229 1879,747.5C 1879.33,753.167 1879.67,758.833 1880,764.5C 1880.71,765.973 1881.88,766.64 1883.5,766.5C 1883.24,772.898 1883.74,779.231 1885,785.5C 1885.71,786.973 1886.88,787.64 1888.5,787.5C 1888.33,794.175 1888.5,800.842 1889,807.5C 1889.13,810.414 1890.3,812.747 1892.5,814.5C 1893.33,826.152 1893.83,837.819 1894,849.5C 1894.23,852.06 1895.56,853.726 1898,854.5C 1898.09,860.836 1899.42,866.836 1902,872.5C 1902.33,877.833 1902.67,883.167 1903,888.5C 1903.67,939.5 1903.67,990.5 1903,1041.5C 1901.83,1052.87 1900.33,1064.2 1898.5,1075.5C 1895.23,1075.43 1893.73,1077.1 1894,1080.5C 1893.83,1092.18 1893.33,1103.85 1892.5,1115.5C 1890.17,1116.77 1889,1118.77 1889,1121.5C 1888.5,1128.49 1888.33,1135.49 1888.5,1142.5C 1887.18,1142.33 1886.01,1142.66 1885,1143.5C 1883.73,1150.1 1883.23,1156.77 1883.5,1163.5C 1882.18,1163.33 1881.01,1163.66 1880,1164.5C 1879.67,1170.17 1879.33,1175.83 1879,1181.5C 1877.24,1183.94 1875.9,1186.6 1875,1189.5C 1874.67,1194.5 1874.33,1199.5 1874,1204.5C 1872.32,1205.06 1870.99,1206.06 1870,1207.5C 1869.5,1211.82 1869.33,1216.15 1869.5,1220.5C 1867.09,1220.14 1865.59,1221.14 1865,1223.5C 1864.5,1228.15 1864.33,1232.82 1864.5,1237.5C 1863.5,1237.5 1862.5,1237.5 1861.5,1237.5C 1860.36,1242.79 1859.36,1248.13 1858.5,1253.5C 1857.52,1253.98 1856.69,1254.64 1856,1255.5C 1855.67,1258.83 1855.33,1262.17 1855,1265.5C 1854.01,1266.94 1852.68,1267.94 1851,1268.5C 1850.5,1272.49 1850.33,1276.49 1850.5,1280.5C 1849.18,1280.33 1848.01,1280.66 1847,1281.5C 1845.69,1286.07 1845.19,1290.73 1845.5,1295.5C 1843.61,1295.3 1842.11,1295.96 1841,1297.5C 1840.5,1300.48 1840.34,1303.48 1840.5,1306.5C 1839.18,1306.33 1838.01,1306.66 1837,1307.5C 1836.68,1312.18 1835.01,1316.18 1832,1319.5C 1831.61,1323.53 1831.11,1327.53 1830.5,1331.5C 1829.32,1331.28 1828.32,1331.61 1827.5,1332.5C 1826.79,1334.78 1826.29,1337.11 1826,1339.5C 1824.49,1340.26 1823.15,1341.26 1822,1342.5C 1821.5,1345.48 1821.34,1348.48 1821.5,1351.5C 1820.17,1351.5 1818.83,1351.5 1817.5,1351.5C 1816.76,1355.12 1816.42,1358.79 1816.5,1362.5C 1815.32,1362.28 1814.32,1362.61 1813.5,1363.5C 1812.37,1366.46 1811.37,1369.46 1810.5,1372.5C 1806.84,1374 1805.84,1376.5 1807.5,1380C 1803.18,1382.09 1801.34,1385.59 1802,1390.5C 1797.87,1392.91 1796.37,1396.58 1797.5,1401.5C 1795.61,1401.3 1794.11,1401.96 1793,1403.5C 1792.5,1405.81 1792.34,1408.14 1792.5,1410.5C 1791.18,1410.33 1790.01,1410.66 1789,1411.5C 1787.8,1413.68 1787.3,1416.01 1787.5,1418.5C 1786.18,1418.33 1785.01,1418.66 1784,1419.5C 1783.18,1422.12 1782.68,1424.78 1782.5,1427.5C 1781.18,1427.33 1780.01,1427.66 1779,1428.5C 1779.33,1432.51 1777.67,1435.18 1774,1436.5C 1773.5,1438.81 1773.34,1441.14 1773.5,1443.5C 1772.18,1443.33 1771.01,1443.66 1770,1444.5C 1768.75,1447.01 1768.25,1449.68 1768.5,1452.5C 1767.18,1452.33 1766.01,1452.66 1765,1453.5C 1764.19,1455.44 1763.69,1457.44 1763.5,1459.5C 1759.68,1460.09 1758.02,1462.42 1758.5,1466.5C 1757.18,1466.33 1756.01,1466.66 1755,1467.5C 1755.15,1471.54 1753.48,1474.54 1750,1476.5C 1749.92,1479.81 1748.42,1482.14 1745.5,1483.5C 1744.85,1485.12 1744.35,1486.78 1744,1488.5C 1740.23,1489.22 1738.56,1491.56 1739,1495.5C 1734.71,1500.49 1730.38,1505.49 1726,1510.5C 1725.67,1512.17 1725.33,1513.83 1725,1515.5C 1721.86,1516.81 1720.03,1519.14 1719.5,1522.5C 1718.25,1523.04 1717.09,1523.71 1716,1524.5C 1713.8,1527.56 1711.97,1530.89 1710.5,1534.5C 1707.33,1537.41 1704.33,1540.41 1701.5,1543.5C 1700.75,1544.74 1700.42,1546.07 1700.5,1547.5C 1696.93,1547.76 1695.6,1549.76 1696.5,1553.5C 1695.18,1553.33 1694.01,1553.66 1693,1554.5C 1692.53,1556.25 1691.86,1557.91 1691,1559.5C 1686.54,1563.96 1682.04,1568.29 1677.5,1572.5C 1675.18,1576.15 1672.52,1579.48 1669.5,1582.5C 1669.21,1585.68 1667.55,1587.68 1664.5,1588.5C 1662.19,1591.97 1659.69,1595.31 1657,1598.5C 1637.83,1618.33 1618.33,1637.83 1598.5,1657C 1592.11,1661.4 1586.45,1666.4 1581.5,1672C 1578.48,1672.15 1576.81,1673.65 1576.5,1676.5C 1575.07,1676.42 1573.74,1676.75 1572.5,1677.5C 1568.29,1682.04 1563.96,1686.54 1559.5,1691C 1557.91,1691.86 1556.25,1692.53 1554.5,1693C 1553.66,1694.01 1553.33,1695.18 1553.5,1696.5C 1549.76,1695.6 1547.76,1696.93 1547.5,1700.5C 1546.07,1700.42 1544.74,1700.75 1543.5,1701.5C 1540.41,1704.33 1537.41,1707.33 1534.5,1710.5C 1530.89,1711.97 1527.56,1713.8 1524.5,1716C 1521.5,1719 1518.5,1722 1515.5,1725C 1513.83,1725.33 1512.17,1725.67 1510.5,1726C 1507.23,1728.41 1504.23,1731.24 1501.5,1734.5C 1497.91,1736.62 1494.24,1738.45 1490.5,1740C 1490.03,1743.46 1488.03,1745.13 1484.5,1745C 1483.26,1746.15 1482.26,1747.49 1481.5,1749C 1479.5,1749.33 1477.5,1749.67 1475.5,1750C 1474.18,1753.67 1471.51,1755.33 1467.5,1755C 1466.66,1756.01 1466.33,1757.18 1466.5,1758.5C 1462.42,1758.02 1460.09,1759.68 1459.5,1763.5C 1457.44,1763.69 1455.44,1764.19 1453.5,1765C 1452.66,1766.01 1452.33,1767.18 1452.5,1768.5C 1449.68,1768.25 1447.01,1768.75 1444.5,1770C 1443.66,1771.01 1443.33,1772.18 1443.5,1773.5C 1441.14,1773.34 1438.81,1773.5 1436.5,1774C 1435.83,1775.33 1435.17,1776.67 1434.5,1778C 1430.86,1777.68 1428.2,1779.02 1426.5,1782C 1424.21,1782.82 1421.88,1783.49 1419.5,1784C 1418.66,1785.01 1418.33,1786.18 1418.5,1787.5C 1416.01,1787.3 1413.68,1787.8 1411.5,1789C 1410.66,1790.01 1410.33,1791.18 1410.5,1792.5C 1408.14,1792.34 1405.81,1792.5 1403.5,1793C 1401.96,1794.11 1401.3,1795.61 1401.5,1797.5C 1396.58,1796.37 1392.91,1797.87 1390.5,1802C 1388.17,1802.33 1385.83,1802.67 1383.5,1803C 1382.84,1804.9 1381.68,1806.4 1380,1807.5C 1375.86,1805.65 1373.69,1806.99 1373.5,1811.5C 1369.74,1811.07 1366.24,1811.74 1363,1813.5C 1362.52,1814.45 1362.35,1815.45 1362.5,1816.5C 1358.74,1816.07 1355.24,1816.74 1352,1818.5C 1351.52,1819.45 1351.35,1820.45 1351.5,1821.5C 1346.42,1820.45 1342.42,1821.95 1339.5,1826C 1337.5,1826.33 1335.5,1826.67 1333.5,1827C 1332.04,1828.58 1330.37,1829.92 1328.5,1831C 1325.5,1831.33 1322.5,1831.67 1319.5,1832C 1317.88,1832.85 1317.54,1833.85 1318.5,1835C 1315.17,1835.33 1311.83,1835.67 1308.5,1836C 1306.89,1837.05 1306.23,1838.55 1306.5,1840.5C 1303.48,1840.34 1300.48,1840.5 1297.5,1841C 1295.96,1842.11 1295.3,1843.61 1295.5,1845.5C 1292.15,1845.33 1288.82,1845.5 1285.5,1846C 1283.14,1846.2 1281.47,1847.36 1280.5,1849.5C 1276.54,1850.33 1272.54,1850.83 1268.5,1851C 1267.94,1852.68 1266.94,1854.01 1265.5,1855C 1262.17,1855.33 1258.83,1855.67 1255.5,1856C 1254.64,1856.69 1253.98,1857.52 1253.5,1858.5C 1249.19,1859.41 1244.85,1860.25 1240.5,1861C 1235.39,1863.98 1229.73,1865.32 1223.5,1865C 1221.14,1865.59 1220.14,1867.09 1220.5,1869.5C 1216.15,1869.33 1211.82,1869.5 1207.5,1870C 1206.06,1870.99 1205.06,1872.32 1204.5,1874C 1199.5,1874.33 1194.5,1874.67 1189.5,1875C 1186.6,1875.9 1183.94,1877.24 1181.5,1879C 1175.83,1879.33 1170.17,1879.67 1164.5,1880C 1163.03,1880.71 1162.36,1881.88 1162.5,1883.5C 1155.76,1883.17 1149.09,1883.67 1142.5,1885C 1141.66,1886.01 1141.33,1887.18 1141.5,1888.5C 1134.83,1888.33 1128.16,1888.5 1121.5,1889C 1118.59,1889.13 1116.25,1890.3 1114.5,1892.5C 1103.18,1893.33 1091.85,1893.83 1080.5,1894C 1077.5,1893.91 1075.5,1895.24 1074.5,1898C 1068.52,1898.25 1062.85,1899.58 1057.5,1902C 1052.17,1902.33 1046.83,1902.67 1041.5,1903C 990.5,1903.67 939.5,1903.67 888.5,1903C 883.167,1902.67 877.833,1902.33 872.5,1902C 866.836,1899.42 860.836,1898.09 854.5,1898C 853.726,1895.56 852.06,1894.23 849.5,1894C 837.819,1893.83 826.152,1893.33 814.5,1892.5C 813.229,1890.17 811.229,1889 808.5,1889C 801.809,1888.83 795.142,1888.33 788.5,1887.5C 787.528,1885.36 785.861,1884.2 783.5,1884C 777.843,1883.5 772.176,1883.33 766.5,1883.5C 766.67,1882.18 766.337,1881.01 765.5,1880C 759.5,1879.67 753.5,1879.33 747.5,1879C 745.112,1877.14 742.446,1875.81 739.5,1875C 734.511,1874.5 729.511,1874.33 724.5,1874.5C 724.703,1872.61 724.037,1871.11 722.5,1870C 718.179,1869.5 713.846,1869.33 709.5,1869.5C 709.863,1867.09 708.863,1865.59 706.5,1865C 701.5,1864.67 696.5,1864.33 691.5,1864C 691.833,1863.67 692.167,1863.33 692.5,1863C 687.235,1860.13 681.569,1858.97 675.5,1859.5C 675.67,1858.18 675.337,1857.01 674.5,1856C 670.833,1855.67 667.167,1855.33 663.5,1855C 662.833,1853.67 662.167,1852.33 661.5,1851C 657.5,1850.67 653.5,1850.33 649.5,1850C 648.726,1847.56 647.06,1846.23 644.5,1846C 641.183,1845.5 637.85,1845.33 634.5,1845.5C 634.863,1843.09 633.863,1841.59 631.5,1841C 628.854,1840.5 626.187,1840.34 623.5,1840.5C 623.703,1838.61 623.037,1837.11 621.5,1836C 618.183,1835.5 614.85,1835.33 611.5,1835.5C 611.719,1834.32 611.386,1833.32 610.5,1832.5C 607.223,1831.75 603.89,1831.25 600.5,1831C 597.908,1827.18 594.242,1825.51 589.5,1826C 588.939,1824.32 587.939,1822.99 586.5,1822C 583.854,1821.5 581.187,1821.34 578.5,1821.5C 578.863,1819.09 577.863,1817.59 575.5,1817C 570.844,1817.27 567.177,1815.6 564.5,1812C 561.854,1811.5 559.187,1811.34 556.5,1811.5C 556.67,1810.18 556.337,1809.01 555.5,1808C 553.253,1806.35 550.92,1806.01 548.5,1807C 547.833,1805.67 547.167,1804.33 546.5,1803C 543.854,1802.5 541.187,1802.34 538.5,1802.5C 538.703,1800.61 538.037,1799.11 536.5,1798C 531.942,1798.39 528.609,1796.73 526.5,1793C 524.19,1792.5 521.857,1792.34 519.5,1792.5C 519.67,1791.18 519.337,1790.01 518.5,1789C 516.196,1788.1 513.862,1787.27 511.5,1786.5C 509.28,1783.7 506.28,1782.37 502.5,1782.5C 502.67,1781.18 502.337,1780.01 501.5,1779C 497.223,1779.47 494.223,1777.81 492.5,1774C 490.19,1773.5 487.857,1773.34 485.5,1773.5C 484.841,1769.01 482.175,1767.34 477.5,1768.5C 477.67,1767.18 477.337,1766.01 476.5,1765C 472.655,1764.69 469.988,1762.86 468.5,1759.5C 465.488,1759 463.155,1757.5 461.5,1755C 457.864,1754.85 455.197,1753.18 453.5,1750C 451.527,1749.5 449.527,1749.34 447.5,1749.5C 447.126,1746.11 445.126,1744.28 441.5,1744C 440.164,1740.17 437.497,1738.67 433.5,1739.5C 433.67,1738.18 433.337,1737.01 432.5,1736C 428.717,1735.45 426.05,1733.45 424.5,1730C 423.207,1729.51 421.873,1729.34 420.5,1729.5C 420.67,1728.18 420.337,1727.01 419.5,1726C 415.816,1726.24 413.149,1724.74 411.5,1721.5C 408.044,1721.21 406.044,1719.38 405.5,1716C 403.866,1715.51 402.199,1715.34 400.5,1715.5C 400.567,1712.23 398.901,1710.73 395.5,1711C 390.318,1706.98 385.651,1702.48 381.5,1697.5C 377.743,1695.6 374.076,1693.43 370.5,1691C 364.449,1684.79 358.115,1678.79 351.5,1673C 350.207,1672.51 348.873,1672.34 347.5,1672.5C 347.649,1671.45 347.483,1670.45 347,1669.5C 343.815,1666.74 340.315,1664.24 336.5,1662C 327.239,1652.88 318.239,1643.55 309.5,1634C 308.5,1633.67 307.5,1633.33 306.5,1633C 301.433,1627.06 296.266,1621.22 291,1615.5C 284.677,1609.56 278.344,1603.56 272,1597.5C 268.891,1593.6 265.557,1589.94 262,1586.5C 261.563,1583.23 259.73,1581.56 256.5,1581.5C 257.244,1578.05 255.91,1576.38 252.5,1576.5C 252.657,1575.13 252.49,1573.79 252,1572.5C 247.596,1568.05 243.096,1563.72 238.5,1559.5C 237.968,1556.14 236.134,1553.8 233,1552.5C 232.667,1551.17 232.333,1549.83 232,1548.5C 227.667,1543.83 223.333,1539.17 219,1534.5C 219.026,1530.7 217.192,1528.7 213.5,1528.5C 213.785,1526.71 213.452,1525.05 212.5,1523.5C 210.041,1522 208.374,1519.83 207.5,1517C 206.552,1516.52 205.552,1516.35 204.5,1516.5C 205.311,1512.45 203.811,1509.78 200,1508.5C 199.667,1507.17 199.333,1505.83 199,1504.5C 195.918,1501.11 192.751,1497.78 189.5,1494.5C 190.245,1491.68 189.079,1489.68 186,1488.5C 183.605,1484.16 181.272,1479.83 179,1475.5C 177.989,1474.66 176.822,1474.33 175.5,1474.5C 175.702,1472.01 175.202,1469.68 174,1467.5C 172.989,1466.66 171.822,1466.33 170.5,1466.5C 171.056,1462.81 169.722,1460.14 166.5,1458.5C 165.846,1456.88 165.346,1455.22 165,1453.5C 163.989,1452.66 162.822,1452.33 161.5,1452.5C 162.055,1448.61 160.721,1445.61 157.5,1443.5C 156.692,1441.58 156.192,1439.58 156,1437.5C 154.89,1435.96 153.39,1435.3 151.5,1435.5C 152.106,1431.38 150.606,1428.38 147,1426.5C 146.713,1424.11 146.213,1421.78 145.5,1419.5C 144.675,1418.61 143.675,1418.28 142.5,1418.5C 142.162,1416.15 141.662,1413.81 141,1411.5C 139.989,1410.66 138.822,1410.33 137.5,1410.5C 137.752,1407.68 137.252,1405.01 136,1402.5C 134.989,1401.66 133.822,1401.33 132.5,1401.5C 132.649,1398.39 132.149,1395.39 131,1392.5C 129.989,1391.66 128.822,1391.33 127.5,1391.5C 127.663,1389.14 127.497,1386.81 127,1384.5C 126.3,1382.97 125.134,1381.97 123.5,1381.5C 122.686,1379.23 122.186,1376.9 122,1374.5C 118.273,1372.39 116.606,1369.06 117,1364.5C 115.167,1363.33 113.667,1361.83 112.5,1360C 112.957,1359.59 113.291,1359.09 113.5,1358.5C 112.811,1356.56 112.311,1354.56 112,1352.5C 110.989,1351.66 109.822,1351.33 108.5,1351.5C 108.603,1348.78 108.269,1346.11 107.5,1343.5C 107.167,1341.83 106.167,1340.83 104.5,1340.5C 104.275,1336.37 102.608,1333.04 99.5,1330.5C 98.6764,1327.22 98.1764,1323.88 98,1320.5C 97.4115,1318.14 95.9115,1317.14 93.5,1317.5C 93.665,1314.15 93.4983,1310.82 93,1307.5C 91.6667,1306.83 90.3333,1306.17 89,1305.5C 88.6667,1302.5 88.3333,1299.5 88,1296.5C 86.9887,1295.66 85.8221,1295.33 84.5,1295.5C 84.5754,1291.1 84.0754,1286.77 83,1282.5C 82.3109,1281.64 81.4776,1280.98 80.5,1280.5C 79.6735,1276.54 79.1735,1272.54 79,1268.5C 77.6439,1267.62 76.1439,1267.29 74.5,1267.5C 74.6653,1263.82 74.4986,1260.15 74,1256.5C 73.3005,1254.97 72.1338,1253.97 70.5,1253.5C 69.6735,1249.54 69.1735,1245.54 69,1241.5C 68.4478,1238.95 67.1144,1236.95 65,1235.5C 64.6667,1230.83 64.3333,1226.17 64,1221.5C 62.9887,1220.66 61.8221,1220.33 60.5,1220.5C 60.7252,1215.75 60.2252,1211.09 59,1206.5C 57.9887,1205.66 56.8221,1205.33 55.5,1205.5C 55.6658,1200.82 55.4992,1196.15 55,1191.5C 54.8666,1188.59 53.6999,1186.25 51.5,1184.5C 50.7225,1177.49 50.0559,1170.49 49.5,1163.5C 48.1779,1163.67 47.0113,1163.34 46,1162.5C 45.6667,1156.5 45.3333,1150.5 45,1144.5C 44.2904,1143.03 43.1238,1142.36 41.5,1142.5C 40.7632,1134.53 40.2632,1126.53 40,1118.5C 39.6322,1117.09 38.7989,1116.09 37.5,1115.5C 36.6922,1102.83 35.8589,1090.16 35,1077.5C 34.3109,1076.64 33.4776,1075.98 32.5,1075.5C 31.5,1001.5 31.1667,927.503 31.5,853.5C 33.1238,853.64 34.2904,852.973 35,851.5C 35.9521,839.178 36.7854,826.845 37.5,814.5C 38.5836,813.335 39.4169,812.002 40,810.5C 40.3333,803.833 40.6667,797.167 41,790.5C 41.6108,788.25 42.9441,786.583 45,785.5C 45.4995,779.175 45.6662,772.842 45.5,766.5C 47.9115,766.863 49.4115,765.863 50,763.5C 50.1697,757.472 50.6697,751.472 51.5,745.5C 53.3173,743.584 54.484,741.251 55,738.5C 55.4992,733.845 55.6658,729.179 55.5,724.5C 56.8221,724.67 57.9887,724.337 59,723.5C 59.7971,718.825 60.6304,714.159 61.5,709.5C 62.4776,709.023 63.3109,708.357 64,707.5C 64.3333,703.167 64.6667,698.833 65,694.5C 67.1144,693.047 68.4478,691.047 69,688.5C 69.3333,684.5 69.6667,680.5 70,676.5C 72,675.833 73.3333,674.5 74,672.5C 74.4983,669.183 74.665,665.85 74.5,662.5C 76.3904,662.703 77.8904,662.037 79,660.5C 79.4988,656.514 79.6655,652.514 79.5,648.5C 80.8221,648.67 81.9887,648.337 83,647.5C 84.0754,643.23 84.5754,638.897 84.5,634.5C 85.8221,634.67 86.9887,634.337 88,633.5C 89.6591,630.57 89.9924,627.57 89,624.5C 90.5122,623.743 91.8455,622.743 93,621.5C 93.3333,618.5 93.6667,615.5 94,612.5C 95.0113,611.663 96.1779,611.33 97.5,611.5C 98.2949,607.215 98.6282,602.881 98.5,598.5C 99.8221,598.67 100.989,598.337 102,597.5C 103.149,594.607 103.649,591.607 103.5,588.5C 104.822,588.67 105.989,588.337 107,587.5C 107.2,583.063 108.867,579.397 112,576.5C 113.119,573.943 113.285,571.443 112.5,569C 113.938,567.431 115.438,565.931 117,564.5C 117.333,562.167 117.667,559.833 118,557.5C 119.333,556.833 120.667,556.167 122,555.5C 122.497,552.854 122.664,550.187 122.5,547.5C 124.39,547.703 125.89,547.037 127,545.5C 126.912,541.766 128.245,538.766 131,536.5C 131.939,533.879 132.772,531.212 133.5,528.5C 136.777,526.826 137.777,524.326 136.5,521C 137.759,520.077 139.092,519.243 140.5,518.5C 141.31,514.543 143.143,511.21 146,508.5C 146.495,506.527 146.662,504.527 146.5,502.5C 147.822,502.67 148.989,502.337 150,501.5C 150.442,497.349 152.442,494.349 156,492.5C 156.497,490.19 156.663,487.857 156.5,485.5C 157.822,485.67 158.989,485.337 160,484.5C 160.977,482.26 161.477,479.927 161.5,477.5C 164.645,476.923 166.145,474.923 166,471.5C 167.154,470.257 168.488,469.257 170,468.5C 170.494,466.866 170.66,465.199 170.5,463.5C 171.822,463.67 172.989,463.337 174,462.5C 175.044,460.285 175.71,457.952 176,455.5C 179.811,454.216 181.311,451.55 180.5,447.5C 181.822,447.67 182.989,447.337 184,446.5C 184.813,444.564 185.313,442.564 185.5,440.5C 186.822,440.67 187.989,440.337 189,439.5C 189.333,437.833 189.667,436.167 190,434.5C 192.833,431.5 195.667,428.5 198.5,425.5C 199.452,423.955 199.785,422.288 199.5,420.5C 200.822,420.67 201.989,420.337 203,419.5C 203.759,415.641 205.759,412.641 209,410.5C 209.49,409.207 209.657,407.873 209.5,406.5C 213.068,406.241 214.401,404.241 213.5,400.5C 217.038,400.785 218.871,399.118 219,395.5C 221.789,392.221 224.789,389.221 228,386.5C 228.196,384.096 229.362,382.429 231.5,381.5C 232.452,379.955 232.785,378.288 232.5,376.5C 233.822,376.67 234.989,376.337 236,375.5C 240.436,368.573 245.769,362.573 252,357.5C 253.667,354.5 255.333,351.5 257,348.5C 260,348.167 261.667,346.5 262,343.5C 272.662,331.172 283.995,319.505 296,308.5C 296.483,307.552 296.649,306.552 296.5,305.5C 299.388,305.78 300.888,304.447 301,301.5C 304.094,301.207 305.594,299.541 305.5,296.5C 306.552,296.649 307.552,296.483 308.5,296C 321.482,282.685 334.816,269.685 348.5,257C 351.5,255.333 354.5,253.667 357.5,252C 358.071,250.795 358.738,249.628 359.5,248.5C 365.489,243.843 371.156,238.843 376.5,233.5C 378.078,232.702 379.744,232.202 381.5,232C 382.337,230.989 382.67,229.822 382.5,228.5C 383.873,228.657 385.207,228.49 386.5,228C 390.083,223.585 394.416,220.085 399.5,217.5C 400.429,216.311 400.762,214.978 400.5,213.5C 404.241,214.401 406.241,213.068 406.5,209.5C 409.99,209.849 412.323,208.349 413.5,205C 415.608,204.64 417.608,203.973 419.5,203C 420.337,201.989 420.67,200.822 420.5,199.5C 424.158,200.32 426.491,198.987 427.5,195.5C 430.901,194.559 433.401,192.559 435,189.5C 438.397,190.539 440.23,189.206 440.5,185.5C 444.206,185.501 446.539,183.835 447.5,180.5C 451.445,181.427 454.112,180.094 455.5,176.5C 457.862,175.729 460.196,174.895 462.5,174C 463.337,172.989 463.67,171.822 463.5,170.5C 465.199,170.66 466.866,170.494 468.5,170C 469.964,166.46 472.631,164.627 476.5,164.5C 477.386,163.675 477.719,162.675 477.5,161.5C 479.927,161.477 482.26,160.977 484.5,160C 485.337,158.989 485.67,157.822 485.5,156.5C 487.857,156.663 490.19,156.497 492.5,156C 493.918,152.509 496.584,150.842 500.5,151C 501.743,149.846 502.743,148.512 503.5,147C 505.167,146.667 506.833,146.333 508.5,146C 510.92,143.391 513.92,141.725 517.5,141C 518.787,139.59 519.954,138.09 521,136.5C 524.497,138.162 526.997,137.162 528.5,133.5C 530.766,132.686 533.1,132.186 535.5,132C 537.032,131.3 538.032,130.134 538.5,128.5C 540.766,127.686 543.1,127.186 545.5,127C 547.037,125.89 547.703,124.39 547.5,122.5C 550.187,122.664 552.854,122.497 555.5,122C 556.38,120.644 556.714,119.144 556.5,117.5C 559.518,117.665 562.518,117.498 565.5,117C 566.726,115.365 568.059,113.865 569.5,112.5C 573.125,113.508 576.125,112.508 578.5,109.5C 581.441,108.478 584.441,107.645 587.5,107C 588.337,105.989 588.67,104.822 588.5,103.5C 591.93,103.893 595.096,103.227 598,101.5C 598.483,100.552 598.649,99.552 598.5,98.5C 602.911,98.979 607.078,98.3124 611,96.5C 611.483,95.552 611.649,94.552 611.5,93.5C 615.226,93.8226 618.893,93.4892 622.5,92.5C 623.6,88.6409 625.934,87.6409 629.5,89.5C 631.754,88.8763 633.421,87.543 634.5,85.5C 638.467,84.5283 642.467,83.6949 646.5,83C 647.973,82.2904 648.64,81.1238 648.5,79.5C 652.514,79.6655 656.514,79.4988 660.5,79C 662.037,77.8904 662.703,76.3904 662.5,74.5C 666.182,74.6653 669.848,74.4986 673.5,74C 674.939,73.0094 675.939,71.676 676.5,70C 680.167,69.6667 683.833,69.3333 687.5,69C 690.013,67.9611 692.347,66.6278 694.5,65C 698.833,64.6667 703.167,64.3333 707.5,64C 708.357,63.3109 709.023,62.4776 709.5,61.5C 714.208,60.8157 718.874,59.9823 723.5,59C 724.337,57.9887 724.67,56.8221 724.5,55.5C 731.301,55.8722 737.967,55.2056 744.5,53.5C 744.5,52.5 744.5,51.5 744.5,50.5C 750.842,50.6662 757.175,50.4995 763.5,50C 765.863,49.4115 766.863,47.9115 766.5,45.5C 772.842,45.6662 779.175,45.4995 785.5,45C 786.583,42.9441 788.25,41.6108 790.5,41C 797.167,40.6667 803.833,40.3333 810.5,40C 811.833,39.3333 813.167,38.6667 814.5,38C 814.167,37.6667 813.833,37.3333 813.5,37C 826.19,36.7276 838.856,36.0609 851.5,35C 852.973,34.2904 853.64,33.1238 853.5,31.5 Z M 579.5,434.5 C 598.845,434.167 618.178,434.5 637.5,435.5C 638.04,436.748 638.707,437.915 639.5,439C 643.833,439.333 648.167,439.667 652.5,440C 655.801,442.945 659.801,444.279 664.5,444C 666.107,445.049 666.773,446.549 666.5,448.5C 671.419,447.372 675.085,448.872 677.5,453C 680.923,452.855 682.923,454.355 683.5,457.5C 687.145,456.68 689.478,458.013 690.5,461.5C 694.989,464.823 699.155,468.49 703,472.5C 703.632,474.965 705.132,476.631 707.5,477.5C 708.474,479.743 708.808,482.076 708.5,484.5C 709.822,484.33 710.989,484.663 712,485.5C 712.591,489.163 714.258,492.163 717,494.5C 716.761,498.213 718.261,500.879 721.5,502.5C 722.119,507.482 722.786,512.482 723.5,517.5C 725.134,517.968 726.3,518.968 727,520.5C 727.667,537.5 727.667,554.5 727,571.5C 726.888,574.447 725.388,575.78 722.5,575.5C 722.666,580.179 722.499,584.845 722,589.5C 718.001,589.978 716.835,591.978 718.5,595.5C 717.767,598.401 715.933,600.067 713,600.5C 713.402,602.874 713.236,605.207 712.5,607.5C 709.771,608.062 708.271,609.728 708,612.5C 704.772,615.306 701.772,618.306 699,621.5C 698.667,622.833 698.333,624.167 698,625.5C 694.27,627.707 690.436,629.873 686.5,632C 684.009,635.162 681.342,638.162 678.5,641C 676.5,641 674.5,641 672.5,641C 670.42,646.373 666.753,647.873 661.5,645.5C 661.703,647.39 661.037,648.89 659.5,650C 654.511,650.499 649.511,650.666 644.5,650.5C 644.863,652.911 643.863,654.411 641.5,655C 632.833,655.333 624.167,655.667 615.5,656C 616.833,656.667 616.833,657.333 615.5,658C 609.119,661.085 602.786,661.085 596.5,658C 595.167,657.333 595.167,656.667 596.5,656C 587.833,655.667 579.167,655.333 570.5,655C 568.137,654.411 567.137,652.911 567.5,650.5C 562.821,650.666 558.155,650.499 553.5,650C 552.871,645.811 550.705,644.645 547,646.5C 544.182,645.191 542.016,643.191 540.5,640.5C 538.902,641.485 537.235,641.651 535.5,641C 531.565,636.39 527.065,632.557 522,629.5C 521.517,628.552 521.351,627.552 521.5,626.5C 517.169,627.549 515.003,625.882 515,621.5C 511.06,616.556 506.726,611.89 502,607.5C 501.503,604.854 501.336,602.187 501.5,599.5C 499.856,599.714 498.356,599.38 497,598.5C 496.814,596.1 496.314,593.766 495.5,591.5C 493.866,591.032 492.7,590.032 492,588.5C 491.828,584.129 491.328,579.796 490.5,575.5C 489.833,575.167 489.167,574.833 488.5,574.5C 487.334,555.842 487.167,537.176 488,518.5C 489.011,517.663 490.178,517.33 491.5,517.5C 491.334,512.821 491.501,508.155 492,503.5C 492.589,501.137 494.089,500.137 496.5,500.5C 496.337,498.143 496.503,495.81 497,493.5C 498.11,491.963 499.61,491.297 501.5,491.5C 500.829,487.174 502.496,484.174 506.5,482.5C 504.96,478.694 506.293,476.694 510.5,476.5C 510.351,475.448 510.517,474.448 511,473.5C 513.669,472.253 515.502,470.253 516.5,467.5C 518.64,466.527 520.307,465.027 521.5,463C 522.448,462.517 523.448,462.351 524.5,462.5C 524.658,458.946 526.325,457.613 529.5,458.5C 531.167,457.5 532.5,456.167 533.5,454.5C 536.956,454.21 538.956,452.376 539.5,449C 542.482,448.502 545.482,448.335 548.5,448.5C 548.33,447.178 548.663,446.011 549.5,445C 553.395,443.734 557.395,443.234 561.5,443.5C 561.33,442.178 561.663,441.011 562.5,440C 567.167,439.667 571.833,439.333 576.5,439C 577.386,437.385 578.386,435.885 579.5,434.5 Z M 1240.5,741.5 C 1259.5,741.333 1278.5,741.5 1297.5,742C 1299.5,742.667 1300.83,744 1301.5,746C 1310.17,746.333 1318.83,746.667 1327.5,747C 1328.74,748.154 1329.74,749.488 1330.5,751C 1336.53,751.17 1342.53,751.67 1348.5,752.5C 1348.83,753.167 1349.17,753.833 1349.5,754.5C 1353.51,755.227 1357.51,755.893 1361.5,756.5C 1362.43,757.689 1362.76,759.022 1362.5,760.5C 1365.52,760.335 1368.52,760.502 1371.5,761C 1373.11,762.049 1373.77,763.549 1373.5,765.5C 1377.18,765.335 1380.85,765.501 1384.5,766C 1385.17,767.333 1385.83,768.667 1386.5,770C 1388.83,770.333 1391.17,770.667 1393.5,771C 1394.34,772.011 1394.67,773.178 1394.5,774.5C 1398.58,774.017 1400.91,775.684 1401.5,779.5C 1403.86,779.337 1406.19,779.503 1408.5,780C 1411.08,782.915 1413.75,785.749 1416.5,788.5C 1418.17,789.167 1419.83,789.833 1421.5,790.5C 1422.39,791.325 1422.72,792.325 1422.5,793.5C 1426.14,792.68 1428.48,794.013 1429.5,797.5C 1434.08,801.38 1438.58,805.38 1443,809.5C 1443.48,810.448 1443.65,811.448 1443.5,812.5C 1446.32,812.316 1447.99,813.649 1448.5,816.5C 1451.82,817.159 1453.16,819.159 1452.5,822.5C 1456.24,823.008 1457.74,825.008 1457,828.5C 1460.22,831.264 1463.22,834.264 1466,837.5C 1466.49,839.134 1466.66,840.801 1466.5,842.5C 1467.82,842.33 1468.99,842.663 1470,843.5C 1471.2,845.677 1471.7,848.011 1471.5,850.5C 1472.93,850.421 1474.26,850.754 1475.5,851.5C 1476.17,853.833 1476.83,856.167 1477.5,858.5C 1480.94,860.662 1482.11,863.662 1481,867.5C 1482.33,868.167 1483.67,868.833 1485,869.5C 1485.33,872.167 1485.67,874.833 1486,877.5C 1487.33,878.167 1488.67,878.833 1490,879.5C 1490.5,882.482 1490.66,885.482 1490.5,888.5C 1491.93,888.421 1493.26,888.754 1494.5,889.5C 1495.49,893.445 1495.82,897.445 1495.5,901.5C 1497.91,901.137 1499.41,902.137 1500,904.5C 1500.5,908.821 1500.67,913.154 1500.5,917.5C 1501.82,917.33 1502.99,917.663 1504,918.5C 1504.33,923.167 1504.67,927.833 1505,932.5C 1506.68,933.061 1508.01,934.061 1509,935.5C 1509.5,942.826 1509.67,950.159 1509.5,957.5C 1512.39,957.22 1513.89,958.553 1514,961.5C 1514.17,973.847 1514.67,986.18 1515.5,998.5C 1516.48,998.977 1517.31,999.643 1518,1000.5C 1518.33,1002.5 1518.67,1004.5 1519,1006.5C 1519.67,1145.17 1519.67,1283.83 1519,1422.5C 1517.49,1423.53 1515.99,1423.37 1514.5,1422C 1444.81,1421.17 1375.14,1421.34 1305.5,1422.5C 1304.26,1422.44 1303.26,1421.94 1302.5,1421C 1303.67,1290.9 1303.83,1160.74 1303,1030.5C 1301.9,1028.95 1300.57,1027.61 1299,1026.5C 1298.67,1017.83 1298.33,1009.17 1298,1000.5C 1296.49,999.743 1295.15,998.743 1294,997.5C 1293.5,993.179 1293.33,988.846 1293.5,984.5C 1291.61,984.703 1290.11,984.037 1289,982.5C 1288.5,979.518 1288.34,976.518 1288.5,973.5C 1286.61,973.703 1285.11,973.037 1284,971.5C 1283.81,969.1 1283.31,966.766 1282.5,964.5C 1280.28,963.783 1278.95,962.283 1278.5,960C 1280.35,956.559 1279.35,954.559 1275.5,954C 1271.31,949.779 1267.48,945.279 1264,940.5C 1260.79,939.745 1259.29,937.745 1259.5,934.5C 1256.17,935.167 1254.17,933.833 1253.5,930.5C 1250.61,929.56 1248.28,927.893 1246.5,925.5C 1244.58,924.692 1242.58,924.192 1240.5,924C 1238.96,922.89 1238.3,921.39 1238.5,919.5C 1234.49,919.666 1230.49,919.499 1226.5,919C 1225.12,917.676 1224.79,916.343 1225.5,915C 1220.17,914.667 1214.83,914.333 1209.5,914C 1207.5,913.333 1206.17,912 1205.5,910C 1191.82,909.167 1178.15,909.334 1164.5,910.5C 1163.69,911.814 1162.69,912.981 1161.5,914C 1156.85,914.499 1152.18,914.666 1147.5,914.5C 1147.7,916.39 1147.04,917.89 1145.5,919C 1142.18,919.498 1138.85,919.665 1135.5,919.5C 1135.67,920.822 1135.34,921.989 1134.5,923C 1131.57,923.953 1128.57,924.453 1125.5,924.5C 1125.67,925.822 1125.34,926.989 1124.5,928C 1122.19,928.662 1119.85,929.162 1117.5,929.5C 1117.65,930.552 1117.48,931.552 1117,932.5C 1113.83,934.882 1110.66,937.215 1107.5,939.5C 1106.84,942.824 1104.84,944.157 1101.5,943.5C 1101.84,947.151 1100.17,948.817 1096.5,948.5C 1096.5,949.833 1096.5,951.167 1096.5,952.5C 1095.17,952.5 1093.83,952.5 1092.5,952.5C 1093.36,956.162 1092.03,958.328 1088.5,959C 1088.07,961.933 1086.4,963.767 1083.5,964.5C 1082.69,966.766 1082.19,969.1 1082,971.5C 1080.99,972.337 1079.82,972.67 1078.5,972.5C 1078.31,974.564 1077.81,976.564 1077,978.5C 1073.24,978.896 1072.07,980.729 1073.5,984C 1072.93,985.872 1072.27,987.705 1071.5,989.5C 1070.68,990.386 1069.68,990.719 1068.5,990.5C 1068.75,995.58 1068.25,1000.58 1067,1005.5C 1065.99,1006.34 1064.82,1006.67 1063.5,1006.5C 1063.79,1017.87 1063.29,1029.21 1062,1040.5C 1061.63,1041.91 1060.8,1042.91 1059.5,1043.5C 1059.17,1105.5 1058.83,1167.5 1058.5,1229.5C 1058.34,1293.94 1058.84,1357.94 1060,1421.5C 988.667,1421.5 917.333,1421.5 846,1421.5C 847.658,1201.52 847.991,981.184 847,760.5C 845.294,759.692 844.461,758.359 844.5,756.5C 915.805,755.343 987.138,755.176 1058.5,756C 1062.28,757.11 1062.45,758.61 1059,760.5C 1058.33,789.833 1058.33,819.167 1059,848.5C 1060.22,851.473 1062.22,852.14 1065,850.5C 1065.48,849.552 1065.65,848.552 1065.5,847.5C 1070.36,848.405 1073.03,846.405 1073.5,841.5C 1076.94,840.079 1078.44,837.413 1078,833.5C 1079.01,832.663 1080.18,832.33 1081.5,832.5C 1081.02,828.651 1082.69,826.651 1086.5,826.5C 1086.63,823.532 1088.13,821.532 1091,820.5C 1094.84,815.461 1098.68,810.461 1102.5,805.5C 1103.69,804.571 1105.02,804.238 1106.5,804.5C 1105.83,800.5 1107.5,798.833 1111.5,799.5C 1111.34,798.127 1111.51,796.793 1112,795.5C 1113.78,794.76 1115.62,794.093 1117.5,793.5C 1122.19,789.235 1126.52,784.735 1130.5,780C 1132.81,779.503 1135.14,779.337 1137.5,779.5C 1137.33,778.178 1137.66,777.011 1138.5,776C 1140.35,775.163 1142.18,774.329 1144,773.5C 1144.48,772.552 1144.65,771.552 1144.5,770.5C 1146.86,770.663 1149.19,770.497 1151.5,770C 1152.29,768.915 1152.96,767.748 1153.5,766.5C 1156.45,765.679 1159.45,765.179 1162.5,765C 1161.79,763.657 1162.12,762.324 1163.5,761C 1167.15,760.501 1170.82,760.335 1174.5,760.5C 1174.33,759.178 1174.66,758.011 1175.5,757C 1178.73,755.801 1182.06,755.301 1185.5,755.5C 1185.32,752.679 1186.65,751.012 1189.5,750.5C 1195.49,751.74 1201.49,751.74 1207.5,750.5C 1207.36,748.876 1208.03,747.71 1209.5,747C 1217.5,746.667 1225.5,746.333 1233.5,746C 1234.17,745 1234.83,744 1235.5,743C 1237.38,742.802 1239.05,742.302 1240.5,741.5 Z M 501.5,755.5 C 571.834,755.333 642.167,755.5 712.5,756C 713.022,756.561 713.355,757.228 713.5,758C 712.835,979.473 712.168,1200.97 711.5,1422.5C 710.167,1421.83 709.167,1420.83 708.5,1419.5C 639.502,1418.33 570.502,1418.17 501.5,1419C 499.863,1420.95 498.363,1420.78 497,1418.5C 496.333,1198.17 496.333,977.833 497,757.5C 498.622,756.901 500.122,756.234 501.5,755.5 Z"/></g>
</svg>
