<svg xmlns="http://www.w3.org/2000/svg" version="1.1" xmlns:xlink="http://www.w3.org/1999/xlink" xmlns:svgjs="http://svgjs.dev/svgjs" width="1000" height="1000" viewBox="0 0 1000 1000"><g transform="matrix(1,0,0,1,-0.14221556886212738,-0.14221556886229791)"><svg viewBox="0 0 334 334" data-background-color="#ffffff" preserveAspectRatio="xMidYMid meet" height="1000" width="1000" xmlns="http://www.w3.org/2000/svg" xmlns:xlink="http://www.w3.org/1999/xlink"><g id="tight-bounds" transform="matrix(1,0,0,1,0.04749999999998522,0.04750000000001364)"><svg viewBox="0 0 333.90454557049503 333.90454557049503" height="333.90454557049503" width="333.90454557049503"><g><svg></svg></g><g><svg viewBox="0 0 333.90454557049503 333.90454557049503" height="333.90454557049503" width="333.90454557049503"><g><path d="M0 166.952c0-92.205 74.747-166.952 166.952-166.952 92.205 0 166.952 74.747 166.953 166.952 0 92.205-74.747 166.952-166.953 166.953-92.205 0-166.952-74.747-166.952-166.953zM166.952 316.63c82.665 0 149.677-67.013 149.678-149.678 0-82.665-67.013-149.677-149.678-149.677-82.665 0-149.677 67.013-149.677 149.677 0 82.665 67.013 149.677 149.677 149.678z" data-fill-palette-color="tertiary" fill="#ff4136" stroke="transparent"></path><ellipse rx="160.27418187383762" ry="160.27418187383762" cx="166.95227278524752" cy="166.95227278524752" fill="#ff4136" stroke="transparent" stroke-width="0" fill-opacity="1" data-fill-palette-color="tertiary"></ellipse></g><g transform="matrix(1,0,0,1,107.93075618249631,71.17305217166896)"><svg viewBox="0 0 118.04303320550243 191.55844122715712" height="191.55844122715712" width="118.04303320550243"><g><svg viewBox="0 0 118.04303320550243 191.55844122715712" height="191.55844122715712" width="118.04303320550243"><g><svg viewBox="0 0 118.04303320550243 191.55844122715712" height="191.55844122715712" width="118.04303320550243"><g><svg viewBox="0 0 118.04303320550243 191.55844122715712" height="191.55844122715712" width="118.04303320550243"><g id="textblocktransform"><svg viewBox="0 0 118.04303320550243 191.55844122715712" height="191.55844122715712" width="118.04303320550243" id="textblock"><g><svg viewBox="0 0 118.04303320550243 191.55844122715712" height="191.55844122715712" width="118.04303320550243"><g transform="matrix(1,0,0,1,0,0)"><svg width="118.04303320550243" viewBox="0.8 -31.55 19.75 32.05" height="191.55844122715712" data-palette-color="#ffffff"><path d="M0.8-21.7Q0.8-26.15 3.4-28.85 6-31.55 10.53-31.55 15.05-31.55 19.8-30.65L19.8-30.65 18.8-22.65Q13.85-23.8 12-23.8L12-23.8Q9.65-23.8 9.65-21.9L9.65-21.9Q9.65-21.15 10.78-20.45 11.9-19.75 13.5-18.98 15.1-18.2 16.7-17.13 18.3-16.05 19.43-14.05 20.55-12.05 20.55-9.45L20.55-9.45Q20.55-4.7 18-2.1 15.45 0.5 10.78 0.5 6.1 0.5 1.65-0.95L1.65-0.95 2.2-8.4Q7.55-6.85 9.65-6.85 11.75-6.85 11.75-8.7L11.75-8.7Q11.75-9.65 10.63-10.45 9.5-11.25 7.9-12.05 6.3-12.85 4.67-13.9 3.05-14.95 1.93-16.95 0.8-18.95 0.8-21.7L0.8-21.7Z" opacity="1" transform="matrix(1,0,0,1,0,0)" fill="#ffffff" class="wordmark-text-0" data-fill-palette-color="quaternary" id="text-0"></path></svg></g></svg></g></svg></g></svg></g><g></g></svg></g></svg></g></svg></g></svg></g><defs></defs></svg><rect width="333.90454557049503" height="333.90454557049503" fill="none" stroke="none" visibility="hidden"></rect></g></svg></g></svg>